<svg width="180" height="56" viewBox="0 0 180 56" fill="none" xmlns="http://www.w3.org/2000/svg">
<g id="Union">
<mask id="path-1-inside-1_1_81" fill="white">
<path fill-rule="evenodd" clip-rule="evenodd" d="M102.213 12.0001H180V56.0001H0V12.0001H78.2131L90.2132 0L102.213 12.0001Z"/>
</mask>
<path fill-rule="evenodd" clip-rule="evenodd" d="M102.213 12.0001H180V56.0001H0V12.0001H78.2131L90.2132 0L102.213 12.0001Z" fill="#D4F6FF"/>
<path d="M102.213 12.0001L101.506 12.7072L101.799 13.0001H102.213V12.0001ZM180 12.0001H181V11.0001H180V12.0001ZM180 56.0001V57.0001H181V56.0001H180ZM0 56.0001H-1V57.0001H0V56.0001ZM0 12.0001V11.0001H-1V12.0001H0ZM78.2131 12.0001V13.0001H78.6273L78.9202 12.7072L78.2131 12.0001ZM90.2132 0L90.9203 -0.707107L90.2132 -1.41421L89.5061 -0.707107L90.2132 0ZM102.213 13.0001H180V11.0001H102.213V13.0001ZM179 12.0001V56.0001H181V12.0001H179ZM180 55.0001H0V57.0001H180V55.0001ZM1 56.0001V12.0001H-1V56.0001H1ZM0 13.0001H78.2131V11.0001H0V13.0001ZM78.9202 12.7072L90.9203 0.707107L89.5061 -0.707107L77.506 11.293L78.9202 12.7072ZM89.5061 0.707107L101.506 12.7072L102.92 11.293L90.9203 -0.707107L89.5061 0.707107Z" fill="#2879FF" mask="url(#path-1-inside-1_1_81)"/>
</g>
</svg>
